# Blender v2.78 (sub 0) OBJ File: 'untitled.blend'
# www.blender.org
mtllib senior_valid.mtl
o Cube_Cube.001
v -0.023091 -1.500000 2.499914
v 0.003091 -1.500000 -2.500019
v 0.023091 -1.500000 -2.499913
v -0.003091 -1.500000 2.500019
v -0.023091 1.500000 2.499912
v 0.003091 1.500000 -2.500020
v 0.023091 1.500000 -2.499912
v -0.003091 1.500000 2.500019
vt 0.6665 0.3331
vt 0.3335 0.0002
vt 0.6665 0.0002
vt 0.3331 0.3331
vt 0.0002 0.0002
vt 0.3331 0.0002
vt 0.3331 0.6665
vt 0.0002 0.3335
vt 0.3331 0.3335
vt 0.3331 0.6669
vt 0.0002 0.9998
vt 0.0002 0.6669
vt 0.6669 0.3331
vt 0.9998 0.0002
vt 0.9998 0.3331
vt 0.6665 0.3335
vt 0.3335 0.6665
vt 0.3335 0.3335
vt 0.3335 0.3331
vt 0.0002 0.3331
vt 0.0002 0.6665
vt 0.3331 0.9998
vt 0.6669 0.0002
vt 0.6665 0.6665
vn 0.0000 -1.0000 0.0000
vn 0.0000 1.0000 0.0000
vn -1.0000 -0.0000 -0.0052
vn 0.0053 0.0000 -1.0000
vn 1.0000 0.0000 0.0052
vn -0.0053 0.0000 1.0000
vn 0.0054 -0.0000 -1.0000
usemtl Material.001
s off
f 1/1/1 3/2/1 4/3/1
f 5/4/2 7/5/2 6/6/2
f 5/7/3 2/8/3 1/9/3
f 2/10/4 7/11/4 3/12/4
f 3/13/5 8/14/5 4/15/5
f 5/16/6 4/17/6 8/18/6
f 1/1/1 2/19/1 3/2/1
f 5/4/2 8/20/2 7/5/2
f 5/7/3 6/21/3 2/8/3
f 2/10/7 6/22/7 7/11/7
f 3/13/5 7/23/5 8/14/5
f 5/16/6 1/24/6 4/17/6
