# Blender v2.78 (sub 0) OBJ File: ''
# www.blender.org
mtllib MapDemo3.mtl
o Cube.001
v 8.000000 -2.000000 3.500000
v -7.999997 -1.999999 -3.500001
v 8.000000 -1.999999 -3.500000
v 8.000004 2.000000 -3.499998
v 7.999995 1.999999 3.500002
v -8.000001 -2.000000 3.499999
v -8.000003 1.999999 3.499999
v -8.000000 2.000000 -3.500000
v 0.000000 -2.000000 3.499999
v 7.999998 -0.000001 3.500001
v -8.000002 -0.000001 3.499999
v -0.000004 1.999999 3.500001
v -4.000000 -2.000000 3.499999
v 4.000000 -2.000000 3.500000
v 7.999996 0.999999 3.500002
v -8.000002 0.999999 3.499999
v -4.000003 1.999999 3.500000
v 7.999999 -1.000001 3.500000
v -8.000002 -1.000001 3.499999
v 3.999996 1.999999 3.500001
v -6.000001 -2.000000 3.499999
v 2.000000 -2.000000 3.499999
v 7.999996 1.499999 3.500002
v -8.000002 1.499999 3.499999
v -6.000003 1.999999 3.500000
v 7.999998 -0.500001 3.500001
v -8.000002 -0.500001 3.499999
v 1.999996 1.999999 3.500001
v -2.000000 -2.000000 3.499999
v 6.000000 -2.000000 3.500000
v 7.999997 0.499999 3.500001
v -8.000002 0.499999 3.499999
v -2.000004 1.999999 3.500000
v 8.000000 -1.500001 3.500000
v -8.000002 -1.500001 3.499999
v 5.999995 1.999999 3.500002
v 3.999997 0.499999 3.500001
v 1.999997 0.999999 3.500001
v -4.000002 0.499999 3.500000
v -2.000003 0.999999 3.500000
v -2.000002 0.499999 3.500000
v -6.000002 0.499999 3.499999
v 5.999997 0.499999 3.500001
v 1.999997 0.499999 3.500000
v -7.000001 -2.000000 3.499999
v 1.000000 -2.000000 3.499999
v 7.999995 1.749999 3.500002
v -8.000002 1.749999 3.499999
v -7.000003 1.999999 3.500000
v 7.999998 -0.250001 3.500001
v -8.000002 -0.250001 3.499999
v 0.999996 1.999999 3.500001
v -3.000000 -2.000000 3.499999
v 5.000000 -2.000000 3.500000
v 7.999997 0.749999 3.500002
v -8.000002 0.749999 3.499999
v -3.000003 1.999999 3.500000
v 7.999999 -1.250001 3.500000
v -8.000002 -1.250001 3.499999
v 4.999995 1.999999 3.500002
v -7.000002 0.999999 3.499999
v -5.000001 -2.000000 3.499999
v 3.000000 -2.000000 3.499999
v 7.999996 1.249999 3.500002
v -8.000002 1.249999 3.499999
v -5.000003 1.999999 3.500000
v 7.999999 -0.750001 3.500000
v -8.000002 -0.750001 3.499999
v 2.999996 1.999999 3.500001
v -1.000000 -2.000000 3.499999
v 7.000000 -2.000000 3.500000
v 7.999997 0.249999 3.500001
v -8.000002 0.249999 3.499999
v -1.000004 1.999999 3.500000
v 8.000000 -1.750001 3.500000
v -8.000002 -1.750001 3.499999
v 6.999995 1.999999 3.500002
v 3.999996 1.249999 3.500001
v 6.999996 0.999999 3.500002
v -4.000003 1.249999 3.500000
v -2.000003 0.749999 3.500000
v -3.000002 0.499999 3.500000
v -7.000002 0.499999 3.499999
v -5.000002 0.499999 3.500000
v -6.000003 1.249999 3.500000
v 4.999997 0.499999 3.500001
v 6.999997 0.499999 3.500001
v 1.999997 0.749999 3.500001
v 2.999997 0.499999 3.500000
v 1.999997 1.249999 3.500001
v 5.999996 1.249999 3.500002
v -2.000003 1.249999 3.500000
v -3.000003 1.249999 3.500000
v 6.999996 1.249999 3.500002
v 4.999996 1.249999 3.500001
v 2.999996 1.249999 3.500001
v -5.000003 1.249999 3.500000
v -7.000002 1.249999 3.499999
v -7.000002 0.749999 3.499999
v 6.999997 0.749999 3.500001
v 8.000002 0.000001 -3.499999
v 0.000002 2.000000 -3.499999
v 0.000001 -1.999999 -3.500001
v -7.999999 0.000001 -3.500000
v 8.000003 1.000001 -3.499998
v -3.999999 2.000000 -3.499999
v 4.000001 -1.999999 -3.500000
v -7.999999 1.000001 -3.500000
v 8.000001 -0.999999 -3.500000
v 4.000003 2.000000 -3.499998
v -3.999998 -1.999999 -3.500001
v -7.999998 -0.999999 -3.500001
v 8.000004 1.500001 -3.499998
v -6.000000 2.000000 -3.500000
v 6.000000 -1.999999 -3.500000
v -8.000000 1.500001 -3.500000
v 8.000002 -0.499999 -3.499999
v 2.000002 2.000000 -3.499999
v -1.999998 -1.999999 -3.500001
v -7.999998 -0.499999 -3.500000
v 8.000002 0.500001 -3.499999
v -1.999999 2.000000 -3.499999
v 2.000001 -1.999999 -3.500001
v -7.999999 0.500001 -3.500000
v 8.000000 -1.499999 -3.500000
v 6.000003 2.000000 -3.499998
v -5.999998 -1.999999 -3.500001
v -7.999998 -1.499999 -3.500001
v 4.000002 0.500001 -3.499999
v 2.000002 1.000001 -3.499999
v -3.999999 0.500001 -3.500000
v -1.999998 1.000001 -3.499999
v -5.999999 0.500001 -3.500000
v 2.000002 0.500001 -3.500000
v 6.000002 0.500001 -3.499999
v -1.999998 0.500001 -3.500000
v 8.000004 1.750001 -3.499998
v -7.000000 2.000000 -3.500000
v 7.000000 -1.999999 -3.500000
v -8.000000 1.750001 -3.500000
v 8.000002 -0.249999 -3.499999
v 1.000002 2.000000 -3.499999
v -0.999998 -1.999999 -3.500001
v -7.999998 -0.249999 -3.500000
v 8.000002 0.750001 -3.499998
v -2.999999 2.000000 -3.499999
v 3.000001 -1.999999 -3.500001
v -7.999999 0.750001 -3.500000
v 8.000000 -1.249999 -3.500000
v 5.000003 2.000000 -3.499998
v -4.999998 -1.999999 -3.500001
v -7.999998 -1.249999 -3.500001
v 4.000003 1.250001 -3.499999
v -3.999999 1.250001 -3.499999
v -6.999999 1.000001 -3.500000
v 8.000004 1.250001 -3.499998
v -4.999999 2.000000 -3.499999
v 5.000001 -1.999999 -3.500000
v -7.999999 1.250001 -3.500000
v 8.000002 -0.749999 -3.500000
v 3.000003 2.000000 -3.499998
v -2.999998 -1.999999 -3.500001
v -7.999998 -0.749999 -3.500001
v 8.000002 0.250001 -3.499999
v -0.999998 2.000000 -3.499999
v 1.000001 -1.999999 -3.500001
v -7.999999 0.250001 -3.500000
v 8.000000 -1.749999 -3.500000
v 7.000004 2.000000 -3.499998
v -6.999997 -1.999999 -3.500001
v -7.999997 -1.749999 -3.500001
v 7.000003 1.000001 -3.499998
v -1.999999 1.250001 -3.499999
v -5.999999 1.250001 -3.500000
v -6.999999 0.500001 -3.500000
v -4.999999 0.500001 -3.500000
v 6.000003 1.250001 -3.499998
v 2.000002 1.250001 -3.499999
v 2.000002 0.750001 -3.499999
v 3.000002 0.500001 -3.500000
v 5.000002 0.500001 -3.499999
v 7.000002 0.500001 -3.499999
v -1.999998 0.750001 -3.499999
v -2.999999 0.500001 -3.500000
v 7.000002 0.750001 -3.499999
v 5.000003 1.250001 -3.499999
v -6.999999 0.750001 -3.500000
v -6.999999 1.250001 -3.500000
v -2.999999 1.250001 -3.499999
v -4.999999 1.250001 -3.500000
v 7.000003 1.250001 -3.499998
v 3.000002 1.250001 -3.499999
vt 0.3335 0.3331
vt 0.6665 0.1875
vt 0.6665 0.2083
vt 0.0002 0.3335
vt 0.3331 0.4584
vt 0.3331 0.4792
vt 0.9998 0.3331
vt 0.6669 0.1875
vt 0.6669 0.1666
vt 0.3335 0.1458
vt 0.3335 0.1250
vt 0.6665 0.0002
vt 0.3331 0.6665
vt 0.0002 0.5000
vt 0.0002 0.4792
vt 0.6669 0.0002
vt 0.9998 0.1666
vt 0.9998 0.1875
vt 0.0002 0.9166
vt 0.0002 0.8958
vt 0.0210 0.9166
vt 0.1875 0.6669
vt 0.2083 0.6669
vt 0.2083 0.8750
vt 0.3123 0.9166
vt 0.3123 0.8958
vt 0.3331 0.9166
vt 0.3335 0.4376
vt 0.3335 0.4168
vt 0.3543 0.4376
vt 0.5000 0.3335
vt 0.5000 0.6665
vt 0.4584 0.4584
vt 0.6665 0.4376
vt 0.6665 0.4584
vt 0.6457 0.4376
vt 0.6665 0.0210
vt 0.6665 0.0418
vt 0.6665 0.0626
vt 0.6665 0.3123
vt 0.6665 0.3331
vt 0.6665 0.2707
vt 0.6665 0.2915
vt 0.6665 0.0834
vt 0.6665 0.1042
vt 0.6665 0.1250
vt 0.6665 0.2291
vt 0.6665 0.2499
vt 0.6665 0.1458
vt 0.6665 0.1666
vt 0.3331 0.6457
vt 0.3331 0.3335
vt 0.3331 0.3543
vt 0.3331 0.3751
vt 0.3331 0.6249
vt 0.3331 0.5832
vt 0.3331 0.6041
vt 0.3331 0.5208
vt 0.3331 0.5416
vt 0.3331 0.5624
vt 0.3331 0.3959
vt 0.3331 0.4168
vt 0.3331 0.4376
vt 0.3331 0.5000
vt 0.6669 0.0210
vt 0.6669 0.3331
vt 0.6669 0.3123
vt 0.6669 0.2915
vt 0.6669 0.2707
vt 0.6669 0.0418
vt 0.6669 0.1042
vt 0.6669 0.0834
vt 0.6669 0.0626
vt 0.6669 0.2499
vt 0.6669 0.2291
vt 0.6669 0.2083
vt 0.6669 0.1458
vt 0.6669 0.1250
vt 0.3335 0.3123
vt 0.3335 0.2915
vt 0.3335 0.2707
vt 0.3335 0.0210
vt 0.3335 0.0002
vt 0.3335 0.0626
vt 0.3335 0.0418
vt 0.3335 0.2499
vt 0.3335 0.2291
vt 0.3335 0.2083
vt 0.3335 0.1042
vt 0.3335 0.0834
vt 0.3335 0.1875
vt 0.3335 0.1666
vt 0.0002 0.6665
vt 0.0002 0.6457
vt 0.0002 0.6249
vt 0.0002 0.3543
vt 0.0002 0.4168
vt 0.0002 0.3959
vt 0.0002 0.3751
vt 0.0002 0.6041
vt 0.0002 0.5832
vt 0.0002 0.5624
vt 0.0002 0.4584
vt 0.0002 0.4376
vt 0.0002 0.5416
vt 0.0002 0.5208
vt 0.9998 0.0002
vt 0.9998 0.0210
vt 0.9998 0.0418
vt 0.9998 0.3123
vt 0.9998 0.2499
vt 0.9998 0.2707
vt 0.9998 0.2915
vt 0.9998 0.0626
vt 0.9998 0.0834
vt 0.9998 0.1042
vt 0.9998 0.2083
vt 0.9998 0.2291
vt 0.9998 0.1458
vt 0.9998 0.1250
vt 0.0210 0.8958
vt 0.0210 0.9374
vt 0.0002 0.9374
vt 0.0002 0.8750
vt 0.0210 0.8750
vt 0.1875 0.9998
vt 0.2083 0.9166
vt 0.2083 0.9374
vt 0.1250 0.9998
vt 0.1042 0.9998
vt 0.1042 0.9374
vt 0.2083 0.9998
vt 0.0834 0.9998
vt 0.2291 0.9998
vt 0.0626 0.9998
vt 0.0626 0.9374
vt 0.2499 0.9998
vt 0.2499 0.9374
vt 0.0418 0.9998
vt 0.2707 0.9998
vt 0.2707 0.9374
vt 0.2915 0.9374
vt 0.0418 0.9374
vt 0.2915 0.9998
vt 0.0210 0.9998
vt 0.0002 0.9998
vt 0.0002 0.9790
vt 0.3123 0.9998
vt 0.1458 0.9998
vt 0.1250 0.9374
vt 0.0002 0.9582
vt 0.3331 0.9790
vt 0.3331 0.9998
vt 0.0834 0.9374
vt 0.3123 0.9374
vt 0.3331 0.9374
vt 0.3331 0.9582
vt 0.1250 0.9166
vt 0.2291 0.9374
vt 0.1250 0.8958
vt 0.2083 0.8958
vt 0.1250 0.8750
vt 0.1042 0.8750
vt 0.1250 0.6669
vt 0.1666 0.9998
vt 0.1042 0.6669
vt 0.2499 0.8750
vt 0.2291 0.8750
vt 0.2291 0.6669
vt 0.1666 0.6669
vt 0.0626 0.8750
vt 0.0626 0.6669
vt 0.0834 0.6669
vt 0.0418 0.8750
vt 0.0210 0.6669
vt 0.2707 0.8750
vt 0.2499 0.6669
vt 0.0002 0.8542
vt 0.2915 0.8750
vt 0.2707 0.6669
vt 0.0834 0.8750
vt 0.0002 0.8334
vt 0.3331 0.8542
vt 0.3331 0.8750
vt 0.3123 0.8750
vt 0.2915 0.6669
vt 0.3331 0.8334
vt 0.3331 0.8125
vt 0.0002 0.8125
vt 0.0002 0.7709
vt 0.0002 0.7501
vt 0.0002 0.7917
vt 0.3331 0.7917
vt 0.3331 0.7293
vt 0.3331 0.7501
vt 0.3123 0.6669
vt 0.3331 0.7709
vt 0.0002 0.7085
vt 0.0002 0.6877
vt 0.0418 0.6669
vt 0.3331 0.6669
vt 0.3331 0.6877
vt 0.3331 0.7085
vt 0.0002 0.7293
vt 0.0002 0.6669
vt 0.1458 0.6669
vt 0.3331 0.8958
vt 0.3543 0.4168
vt 0.3543 0.4584
vt 0.3335 0.4584
vt 0.3335 0.3959
vt 0.3543 0.3959
vt 0.3751 0.4584
vt 0.3959 0.4584
vt 0.3751 0.6665
vt 0.4168 0.4584
vt 0.4376 0.4584
vt 0.4168 0.6665
vt 0.3335 0.4792
vt 0.3335 0.5000
vt 0.3335 0.5208
vt 0.3335 0.5416
vt 0.4584 0.4376
vt 0.4584 0.4168
vt 0.4792 0.3335
vt 0.3335 0.5624
vt 0.3959 0.6665
vt 0.3335 0.6041
vt 0.3335 0.5832
vt 0.3543 0.6665
vt 0.4584 0.3959
vt 0.4376 0.3959
vt 0.4376 0.3335
vt 0.4168 0.3959
vt 0.4168 0.3335
vt 0.3335 0.6249
vt 0.3959 0.3959
vt 0.3959 0.3335
vt 0.3335 0.6457
vt 0.3751 0.3959
vt 0.3751 0.3335
vt 0.3335 0.6665
vt 0.3543 0.3335
vt 0.3335 0.3751
vt 0.3335 0.3543
vt 0.4376 0.6665
vt 0.3335 0.3335
vt 0.4584 0.6665
vt 0.4792 0.6665
vt 0.5416 0.6665
vt 0.5208 0.6665
vt 0.5416 0.4584
vt 0.4584 0.3335
vt 0.6041 0.6665
vt 0.5832 0.6665
vt 0.5832 0.4584
vt 0.5624 0.6665
vt 0.5208 0.3335
vt 0.5416 0.3335
vt 0.5416 0.3959
vt 0.6665 0.6665
vt 0.6457 0.6665
vt 0.6665 0.6457
vt 0.6249 0.6665
vt 0.6041 0.4584
vt 0.5832 0.3335
vt 0.6041 0.3335
vt 0.6041 0.3959
vt 0.5624 0.3335
vt 0.6665 0.6249
vt 0.6665 0.6041
vt 0.6665 0.5832
vt 0.5624 0.3959
vt 0.6457 0.3335
vt 0.6665 0.3335
vt 0.6665 0.3543
vt 0.6665 0.5624
vt 0.6665 0.5416
vt 0.6457 0.4584
vt 0.5832 0.3959
vt 0.6665 0.3751
vt 0.6665 0.3959
vt 0.6457 0.3959
vt 0.6665 0.5208
vt 0.6665 0.4792
vt 0.6665 0.5000
vt 0.6249 0.3959
vt 0.6249 0.4584
vt 0.6249 0.3335
vt 0.5416 0.4168
vt 0.5624 0.4584
vt 0.5416 0.4376
vt 0.6457 0.4168
vt 0.6665 0.4168
vt 0.3331 0.0002
vt 0.1666 0.3331
vt 0.1458 0.3331
vt 0.0002 0.3331
vt 0.2083 0.0002
vt 0.2291 0.0002
vt 0.0210 0.3331
vt 0.3331 0.3331
vt 0.3123 0.3331
vt 0.2915 0.3331
vt 0.2707 0.3331
vt 0.0418 0.3331
vt 0.1042 0.3331
vt 0.0834 0.3331
vt 0.0626 0.3331
vt 0.2499 0.3331
vt 0.2291 0.3331
vt 0.2083 0.3331
vt 0.1250 0.3331
vt 0.1875 0.3331
vt 0.0002 0.0002
vt 0.0210 0.0002
vt 0.0418 0.0002
vt 0.0626 0.0002
vt 0.0834 0.0002
vt 0.1250 0.0002
vt 0.1458 0.0002
vt 0.1042 0.0002
vt 0.3123 0.0002
vt 0.2499 0.0002
vt 0.2707 0.0002
vt 0.2915 0.0002
vt 0.1666 0.0002
vt 0.1875 0.0002
vn 0.0000 -1.0000 -0.0000
vn 1.0000 -0.0000 0.0000
vn -1.0000 -0.0000 -0.0000
vn 0.0000 0.0000 1.0000
vn 0.0000 0.0000 -1.0000
vn -0.0000 1.0000 0.0000
usemtl Material.001
s 1
f 1/1/1 166/2/1 123/3/1
f 1/4/2 117/5/2 141/6/2
f 2/7/3 51/8/3 11/9/3
f 70/10/1 29/11/1 2/12/1
f 4/13/2 10/14/2 50/15/2
f 7/16/3 104/17/3 144/18/3
f 16/19/4 56/20/4 61/21/4
f 46/22/4 22/23/4 44/24/4
f 79/25/4 100/26/4 15/27/4
f 148/28/5 108/29/5 187/30/5
f 102/31/5 103/32/5 136/33/5
f 145/34/5 121/35/5 185/36/5
f 1/1/1 2/12/1 170/37/1
f 127/38/1 151/39/1 1/1/1
f 1/1/1 170/37/1 127/38/1
f 139/40/1 3/41/1 1/1/1
f 158/42/1 115/43/1 1/1/1
f 1/1/1 151/39/1 111/44/1
f 162/45/1 119/46/1 1/1/1
f 1/1/1 111/44/1 162/45/1
f 115/43/1 139/40/1 1/1/1
f 123/3/1 147/47/1 1/1/1
f 107/48/1 158/42/1 1/1/1
f 1/1/1 119/46/1 143/49/1
f 103/50/1 166/2/1 1/1/1
f 1/1/1 143/49/1 103/50/1
f 147/47/1 107/48/1 1/1/1
f 137/51/2 4/13/2 1/4/2
f 1/4/2 3/52/2 168/53/2
f 168/53/2 125/54/2 1/4/2
f 113/55/2 137/51/2 1/4/2
f 105/56/2 156/57/2 1/4/2
f 164/58/2 121/59/2 1/4/2
f 145/60/2 105/56/2 1/4/2
f 1/4/2 125/54/2 149/61/2
f 109/62/2 160/63/2 1/4/2
f 1/4/2 149/61/2 109/62/2
f 156/57/2 113/55/2 1/4/2
f 101/64/2 164/58/2 1/4/2
f 141/6/2 101/64/2 1/4/2
f 1/4/2 160/63/2 117/5/2
f 121/59/2 145/60/2 1/4/2
f 48/65/3 7/16/3 2/7/3
f 2/7/3 6/66/3 76/67/3
f 35/68/3 59/69/3 2/7/3
f 2/7/3 76/67/3 35/68/3
f 24/70/3 48/65/3 2/7/3
f 56/71/3 16/72/3 2/7/3
f 65/73/3 24/70/3 2/7/3
f 2/7/3 59/69/3 19/74/3
f 68/75/3 27/76/3 2/7/3
f 2/7/3 19/74/3 68/75/3
f 16/72/3 65/73/3 2/7/3
f 11/9/3 73/77/3 2/7/3
f 32/78/3 56/71/3 2/7/3
f 2/7/3 27/76/3 51/8/3
f 73/77/3 32/78/3 2/7/3
f 2/12/1 1/1/1 71/79/1
f 30/80/1 54/81/1 2/12/1
f 2/12/1 71/79/1 30/80/1
f 45/82/1 6/83/1 2/12/1
f 62/84/1 21/85/1 2/12/1
f 2/12/1 54/81/1 14/86/1
f 63/87/1 22/88/1 2/12/1
f 2/12/1 14/86/1 63/87/1
f 21/85/1 45/82/1 2/12/1
f 29/11/1 53/89/1 2/12/1
f 13/90/1 62/84/1 2/12/1
f 2/12/1 22/88/1 46/91/1
f 9/92/1 70/10/1 2/12/1
f 2/12/1 46/91/1 9/92/1
f 53/89/1 13/90/1 2/12/1
f 4/13/2 5/93/2 47/94/2
f 47/94/2 23/95/2 4/13/2
f 75/96/2 1/4/2 4/13/2
f 18/97/2 58/98/2 4/13/2
f 34/99/2 75/96/2 4/13/2
f 4/13/2 23/95/2 64/100/2
f 15/101/2 55/102/2 4/13/2
f 4/13/2 64/100/2 15/101/2
f 58/98/2 34/99/2 4/13/2
f 50/15/2 26/103/2 4/13/2
f 67/104/2 18/97/2 4/13/2
f 4/13/2 55/102/2 31/105/2
f 72/106/2 10/14/2 4/13/2
f 4/13/2 31/105/2 72/106/2
f 26/103/2 67/104/2 4/13/2
f 7/16/3 8/107/3 140/108/3
f 140/108/3 116/109/3 7/16/3
f 171/110/3 2/7/3 7/16/3
f 112/111/3 152/112/3 7/16/3
f 128/113/3 171/110/3 7/16/3
f 7/16/3 116/109/3 159/114/3
f 108/115/3 148/116/3 7/16/3
f 7/16/3 159/114/3 108/115/3
f 152/112/3 128/113/3 7/16/3
f 120/117/3 163/118/3 7/16/3
f 167/119/3 104/17/3 7/16/3
f 163/118/3 112/111/3 7/16/3
f 124/120/3 167/119/3 7/16/3
f 144/18/3 120/117/3 7/16/3
f 7/16/3 148/116/3 124/120/3
f 99/121/4 61/21/4 56/20/4
f 98/122/4 65/123/4 16/19/4
f 56/20/4 32/124/4 83/125/4
f 98/122/4 16/19/4 61/21/4
f 56/20/4 83/125/4 99/121/4
f 52/126/4 38/127/4 90/128/4
f 33/129/4 57/130/4 93/131/4
f 28/132/4 52/126/4 90/128/4
f 57/130/4 17/133/4 93/131/4
f 69/134/4 28/132/4 90/128/4
f 17/133/4 66/135/4 97/136/4
f 20/137/4 69/134/4 78/138/4
f 66/135/4 25/139/4 97/136/4
f 60/140/4 95/141/4 91/142/4
f 25/139/4 85/143/4 97/136/4
f 36/144/4 60/140/4 91/142/4
f 49/145/4 7/146/4 48/147/4
f 77/148/4 36/144/4 91/142/4
f 74/149/4 33/129/4 92/150/4
f 24/151/4 65/123/4 98/122/4
f 49/145/4 85/143/4 25/139/4
f 47/152/4 5/153/4 77/148/4
f 20/137/4 95/141/4 60/140/4
f 24/151/4 98/122/4 49/145/4
f 97/136/4 80/154/4 17/133/4
f 98/122/4 85/143/4 49/145/4
f 47/152/4 77/148/4 94/155/4
f 94/155/4 64/156/4 23/157/4
f 23/157/4 47/152/4 94/155/4
f 24/151/4 49/145/4 48/147/4
f 92/150/4 40/158/4 74/149/4
f 80/154/4 93/131/4 17/133/4
f 94/155/4 77/148/4 91/142/4
f 78/138/4 95/141/4 20/137/4
f 69/134/4 96/159/4 78/138/4
f 40/158/4 81/160/4 74/149/4
f 88/161/4 38/127/4 52/126/4
f 90/128/4 96/159/4 69/134/4
f 33/129/4 93/131/4 92/150/4
f 41/162/4 82/163/4 29/164/4
f 12/165/4 74/149/4 41/162/4
f 44/24/4 88/161/4 52/126/4
f 52/126/4 12/165/4 44/24/4
f 82/163/4 53/166/4 29/164/4
f 74/149/4 81/160/4 41/162/4
f 37/167/4 89/168/4 63/169/4
f 44/24/4 12/165/4 9/170/4
f 84/171/4 62/172/4 13/173/4
f 89/168/4 44/24/4 22/23/4
f 42/174/4 83/125/4 45/175/4
f 86/176/4 37/167/4 14/177/4
f 83/125/4 32/124/4 73/178/4
f 43/179/4 86/176/4 54/180/4
f 39/181/4 53/166/4 82/163/4
f 73/178/4 11/182/4 83/125/4
f 12/165/4 41/162/4 9/170/4
f 72/183/4 31/184/4 87/185/4
f 87/185/4 43/179/4 30/186/4
f 84/171/4 13/173/4 39/181/4
f 10/187/4 72/183/4 87/185/4
f 50/188/4 10/187/4 87/185/4
f 11/182/4 51/189/4 83/125/4
f 68/190/4 19/191/4 45/175/4
f 51/189/4 27/192/4 83/125/4
f 26/193/4 50/188/4 87/185/4
f 58/194/4 18/195/4 71/196/4
f 67/197/4 26/193/4 87/185/4
f 27/192/4 68/190/4 83/125/4
f 35/198/4 76/199/4 45/175/4
f 45/175/4 21/200/4 42/174/4
f 18/195/4 67/197/4 71/196/4
f 1/201/4 75/202/4 71/196/4
f 34/203/4 58/194/4 71/196/4
f 59/204/4 45/175/4 19/191/4
f 45/175/4 83/125/4 68/190/4
f 76/199/4 6/205/4 45/175/4
f 75/202/4 34/203/4 71/196/4
f 54/180/4 30/186/4 43/179/4
f 71/196/4 67/197/4 87/185/4
f 35/198/4 45/175/4 59/204/4
f 13/173/4 53/166/4 39/181/4
f 21/200/4 62/172/4 42/174/4
f 30/186/4 71/196/4 87/185/4
f 22/23/4 63/169/4 89/168/4
f 14/177/4 54/180/4 86/176/4
f 62/172/4 84/171/4 42/174/4
f 70/206/4 9/170/4 41/162/4
f 41/162/4 29/164/4 70/206/4
f 63/169/4 14/177/4 37/167/4
f 44/24/4 9/170/4 46/22/4
f 31/184/4 55/207/4 100/26/4
f 15/27/4 64/156/4 94/155/4
f 94/155/4 79/25/4 15/27/4
f 100/26/4 87/185/4 31/184/4
f 55/207/4 15/27/4 100/26/4
f 155/208/5 187/30/5 108/29/5
f 175/209/5 124/210/5 148/28/5
f 108/29/5 159/211/5 188/212/5
f 175/209/5 148/28/5 187/30/5
f 188/212/5 155/208/5 108/29/5
f 133/213/5 176/214/5 127/215/5
f 131/216/5 184/217/5 111/218/5
f 124/210/5 175/209/5 167/219/5
f 133/213/5 127/215/5 175/209/5
f 167/219/5 175/209/5 104/220/5
f 144/221/5 104/220/5 175/209/5
f 175/209/5 120/222/5 144/221/5
f 183/223/5 132/224/5 165/225/5
f 175/209/5 163/226/5 120/222/5
f 136/33/5 183/223/5 165/225/5
f 176/214/5 151/227/5 127/215/5
f 152/228/5 112/229/5 170/230/5
f 163/226/5 175/209/5 170/230/5
f 173/231/5 189/232/5 146/233/5
f 112/229/5 163/226/5 170/230/5
f 189/232/5 154/234/5 106/235/5
f 128/236/5 152/228/5 170/230/5
f 154/234/5 190/237/5 157/238/5
f 171/239/5 128/236/5 170/230/5
f 190/237/5 174/240/5 114/241/5
f 2/242/5 171/239/5 170/230/5
f 174/240/5 188/212/5 138/243/5
f 170/230/5 175/209/5 127/215/5
f 188/212/5 159/211/5 116/244/5
f 176/214/5 131/216/5 151/227/5
f 188/212/5 116/244/5 140/245/5
f 151/227/5 131/216/5 111/218/5
f 188/212/5 140/245/5 138/243/5
f 111/218/5 184/217/5 162/246/5
f 140/245/5 8/247/5 138/243/5
f 162/246/5 184/217/5 136/33/5
f 174/240/5 138/243/5 114/241/5
f 119/248/5 162/246/5 136/33/5
f 190/237/5 114/241/5 157/238/5
f 143/249/5 119/248/5 136/33/5
f 154/234/5 157/238/5 106/235/5
f 143/249/5 136/33/5 103/32/5
f 123/250/5 166/251/5 134/252/5
f 103/32/5 102/31/5 134/252/5
f 189/232/5 106/235/5 146/233/5
f 122/253/5 165/225/5 173/231/5
f 173/231/5 146/233/5 122/253/5
f 166/251/5 103/32/5 134/252/5
f 158/254/5 107/255/5 129/256/5
f 147/257/5 123/250/5 134/252/5
f 173/231/5 165/225/5 132/224/5
f 142/258/5 118/259/5 178/260/5
f 165/225/5 102/31/5 136/33/5
f 107/255/5 147/257/5 129/256/5
f 3/261/5 139/262/5 168/263/5
f 115/264/5 158/254/5 181/265/5
f 102/31/5 142/258/5 134/252/5
f 110/266/5 150/267/5 186/268/5
f 118/259/5 161/269/5 178/260/5
f 139/262/5 125/270/5 168/263/5
f 149/271/5 125/270/5 139/262/5
f 139/262/5 109/272/5 149/271/5
f 161/269/5 192/273/5 178/260/5
f 169/274/5 4/275/5 137/276/5
f 110/266/5 192/273/5 161/269/5
f 139/262/5 160/277/5 109/272/5
f 117/278/5 160/277/5 182/279/5
f 139/262/5 115/264/5 182/279/5
f 153/280/5 192/273/5 110/266/5
f 113/281/5 156/282/5 191/283/5
f 169/274/5 137/276/5 113/281/5
f 141/284/5 117/278/5 182/279/5
f 164/285/5 101/286/5 182/279/5
f 113/281/5 191/283/5 169/274/5
f 186/268/5 153/280/5 110/266/5
f 191/283/5 177/287/5 169/274/5
f 101/286/5 141/284/5 182/279/5
f 182/279/5 121/35/5 164/285/5
f 129/256/5 181/265/5 158/254/5
f 135/288/5 182/279/5 115/264/5
f 177/287/5 126/289/5 169/274/5
f 178/260/5 130/290/5 142/258/5
f 186/268/5 126/289/5 177/287/5
f 182/279/5 160/277/5 139/262/5
f 134/252/5 180/291/5 147/257/5
f 181/265/5 135/288/5 115/264/5
f 186/268/5 150/267/5 126/289/5
f 142/258/5 130/290/5 179/292/5
f 180/291/5 129/256/5 147/257/5
f 142/258/5 179/292/5 134/252/5
f 172/293/5 191/283/5 156/282/5
f 156/282/5 105/294/5 172/293/5
f 185/36/5 172/293/5 105/294/5
f 121/35/5 182/279/5 185/36/5
f 185/36/5 105/294/5 145/34/5
usemtl Material_UVShit.png
f 5/295/6 102/296/6 165/297/6
f 8/298/6 28/299/6 69/300/6
f 138/301/6 8/298/6 5/295/6
f 5/295/6 4/302/6 169/303/6
f 126/304/6 150/305/6 5/295/6
f 5/295/6 169/303/6 126/304/6
f 114/306/6 138/301/6 5/295/6
f 146/307/6 106/308/6 5/295/6
f 157/309/6 114/306/6 5/295/6
f 5/295/6 150/305/6 110/310/6
f 161/311/6 118/312/6 5/295/6
f 5/295/6 110/310/6 161/311/6
f 106/308/6 157/309/6 5/295/6
f 165/297/6 122/313/6 5/295/6
f 5/295/6 118/312/6 142/314/6
f 142/314/6 102/296/6 5/295/6
f 122/313/6 146/307/6 5/295/6
f 8/298/6 7/315/6 49/316/6
f 49/316/6 25/317/6 8/298/6
f 66/318/6 17/319/6 8/298/6
f 33/320/6 74/321/6 8/298/6
f 17/319/6 57/322/6 8/298/6
f 8/298/6 25/317/6 66/318/6
f 77/323/6 5/295/6 8/298/6
f 20/324/6 60/325/6 8/298/6
f 36/326/6 77/323/6 8/298/6
f 8/298/6 57/322/6 33/320/6
f 12/327/6 52/328/6 8/298/6
f 8/298/6 74/321/6 12/327/6
f 60/325/6 36/326/6 8/298/6
f 52/328/6 28/299/6 8/298/6
f 69/300/6 20/324/6 8/298/6
